# xmcd CD database file
#
# Track frame offsets:
#	150
#	28095
#	48192
#	73392
#	93645
#	118917
#	150492
#	176367
#	199992
#	220917
#
# Disc length: 3176 seconds
#
# Revision: 0
# Processed by: cddbd v1.5.2PL0 Copyright (c) Steve Scherf et al.
# Submitted via: CDex 1.51
#
DISCID=910c660a
DTITLE=Celtic Journey - Celtic Journey
DYEAR=1996
DGENRE=New Age
TTITLE0=The White Sail
TTITLE1=Cry Of The Wind
TTITLE2=Moon Dance
TTITLE3=Woodland Ride
TTITLE4=Ancient Wisdom
TTITLE5=Hills Of Myst
TTITLE6=Aos Dana
TTITLE7=Fields Of Rain
TTITLE8=Highland Dawn
TTITLE9=Prophecy
EXTD=YEAR: 1996
EXTT0=
EXTT1=
EXTT2=
EXTT3=
EXTT4=
EXTT5=
EXTT6=
EXTT7=
EXTT8=
EXTT9=
PLAYORDER=
